<svg width="372" height="264" viewBox="0 0 372 264" fill="none" xmlns="http://www.w3.org/2000/svg">
<path fill-rule="evenodd" clip-rule="evenodd" d="M94.7384 114.055C91.5207 124.678 89.7906 135.948 89.7906 147.622C89.7906 211.479 141.557 263.245 205.414 263.245C269.271 263.245 321.037 211.479 321.037 147.622C321.037 93.7354 284.174 48.4588 234.29 35.6337C228.723 40.2149 221.129 45.5015 212.227 51.1695C262.447 54.6656 302.102 96.5124 302.102 147.621C302.102 201.02 258.813 244.309 205.414 244.309C152.015 244.309 108.726 201.02 108.726 147.621C108.726 131.032 112.904 115.418 120.265 101.775C110.988 106.375 102.311 110.544 94.7384 114.055Z" fill="#D9D9D9"/>
<path d="M67.8429 102.145C65.3792 98.699 55.2544 88.9139 50.5 84.4522C50.5 80.0215 54.7142 79.5288 56.8212 79.8363L86.8066 88.2983C87.3252 86.9444 113.064 68.6563 125.869 59.6816C113.388 46.5528 87.2928 18.172 82.7545 9.67932C78.2162 1.18663 86.0502 0.294278 90.5345 0.909691C100.422 6.19198 120.649 16.6027 122.465 15.9873C124.734 15.218 131.055 13.2179 131.704 15.9873C132.222 18.2028 131.487 19.7824 131.055 20.2952L162.337 35.0651C184.867 20.449 197.185 18.1415 206.91 15.0643C214.69 12.6025 222.902 16.09 226.036 18.1415C226.036 18.1415 232.195 22.2954 224.577 33.0652C213.293 49.0184 131.595 89.5806 91.0207 107.222L86.6445 124.608C83.7918 129.408 79.837 128.454 78.2162 127.377C75.7849 120.403 70.3065 105.592 67.8429 102.145Z" fill="#D9D9D9"/>
<path d="M147.688 89.0405C158.191 86.3327 174.529 76.851 181.445 70.8507C181.445 94.3389 179.716 139.012 172.325 142.581C164.934 146.151 152.821 108.375 147.688 89.0405Z" fill="#D9D9D9"/>
<path d="M260.215 96.1758H209.158L183.298 170.26H209.158L191.255 237.003L273.477 151.572H238.996L260.215 96.1758Z" fill="#D9D9D9"/>
</svg>
