<?xml version="1.0" encoding="UTF-8"?>
<svg id="Layer_2" data-name="Layer 2" xmlns="http://www.w3.org/2000/svg" viewBox="0 0 15.94 13.76">
  <defs>
    <style>
      .cls-1 {
        fill: #fcc328;
      }
    </style>
  </defs>
  <g id="Layer_1-2" data-name="Layer 1">
    <g id="eMRq3h.tif">
      <g>
        <path class="cls-1" d="m3.73,9.73c-.21-.18-.43-.34-.61-.53-1.03-1.07-1.36-2.34-.92-3.75.45-1.41,1.45-2.28,2.91-2.56,1.62-.3,3.23.52,3.97,1.99.06.12.13.15.26.16,1.39.11,2.39.78,3.01,2.03.06.11.11.15.23.14,1.61-.05,2.94,1.09,3.28,2.53.42,1.79-.78,3.62-2.59,3.94-.21.04-.43.06-.65.06-2.19,0-4.39,0-6.58,0-1.35,0-2.38-.83-2.66-2.15-.13-.61-.02-1.19.28-1.74.02-.05.05-.09.07-.13Zm5.61,3.09h0c.9,0,1.81,0,2.71,0,.32,0,.63,0,.95-.03,1.31-.15,2.24-1.49,1.96-2.77-.28-1.27-1.42-2.03-2.71-1.83-.34.05-.51-.05-.62-.39-.41-1.25-1.53-1.96-2.82-1.8-1.03.12-1.94.96-2.14,1.98-.05.28-.05.58-.04.86.02.37-.16.58-.53.58-.06,0-.11,0-.17,0-.89,0-1.65.77-1.66,1.66,0,.96.75,1.73,1.72,1.74,1.12,0,2.24,0,3.36,0Zm-1.16-7.64c-.04-.07-.07-.12-.11-.17-.65-.96-1.76-1.42-2.91-1.18-1.16.24-2.04,1.21-2.19,2.38-.14,1.09.36,2.15,1.31,2.75.08.05.14.04.22-.01.32-.22.66-.36,1.04-.41.1-.01.12-.06.13-.15.04-.69.25-1.32.66-1.88.46-.64,1.08-1.08,1.86-1.32Z"/>
        <path class="cls-1" d="m1.74,3.99c0,.34-.35.57-.66.41-.3-.15-.6-.33-.88-.51-.21-.13-.26-.39-.14-.6.11-.2.36-.31.57-.2.32.16.64.34.94.54.1.07.14.22.21.34-.01,0-.03.02-.04.02Z"/>
        <path class="cls-1" d="m1.3,8.67c.2.02.37.15.43.34.06.19,0,.4-.17.51-.29.18-.59.36-.9.52-.22.12-.48.02-.6-.2-.12-.22-.06-.48.16-.61.28-.17.56-.33.85-.49.07-.04.15-.05.23-.07Z"/>
        <path class="cls-1" d="m5.29.94c0-.15,0-.3,0-.45,0-.28.19-.47.44-.48.25-.01.48.17.49.44.02.33.02.66,0,.99-.01.27-.24.45-.5.44-.24-.02-.42-.21-.42-.48,0-.15,0-.3,0-.45Z"/>
        <path class="cls-1" d="m11.5,3.52c0,.17-.07.3-.21.39-.28.17-.56.33-.85.49-.23.12-.51.03-.63-.19-.12-.22-.04-.49.18-.62.27-.16.54-.32.82-.47.33-.18.69.05.69.41Z"/>
      </g>
    </g>
  </g>
</svg>