<?xml version="1.0" encoding="UTF-8"?>
<svg id="Layer_2" data-name="Layer 2" xmlns="http://www.w3.org/2000/svg" viewBox="0 0 15.93 15.93">
  <defs>
    <style>
      .cls-1 {
        fill: #fcc328;
      }
    </style>
  </defs>
  <g id="Layer_1-2" data-name="Layer 1">
    <g id="eGgoRy.tif">
      <g>
        <path class="cls-1" d="m5.64,9.79c1.58,0,3.16.01,4.75,0,1.43-.01,2.68.97,3.02,2.35.44,1.76-.8,3.56-2.61,3.76-1.65.19-3.13-.91-3.41-2.55-.03-.16-.04-.32-.04-.48,0-.36.28-.64.62-.64.34,0,.61.28.62.63.02.87.59,1.58,1.44,1.78,1.08.26,2.16-.59,2.21-1.69.05-1.05-.81-1.92-1.88-1.92-3.22.02-6.43,0-9.65,0-.37,0-.61-.16-.69-.48-.1-.36.17-.74.54-.76.2-.01.4,0,.61,0,1.49,0,2.98,0,4.47,0Z"/>
        <path class="cls-1" d="m8.08,8.59c-1.65,0-3.3,0-4.95,0-.26,0-.46-.12-.58-.35-.11-.23-.08-.46.07-.66.13-.17.31-.24.52-.24.84,0,1.67,0,2.51,0,2.41,0,4.81,0,7.22,0,1.01,0,1.83-.83,1.82-1.84,0-.9-.72-1.71-1.6-1.8-.95-.1-1.82.51-2.01,1.42-.03.13-.03.27-.04.4-.03.34-.26.58-.56.6-.32.02-.62-.16-.66-.46-.03-.24-.01-.5.04-.74.28-1.35,1.3-2.31,2.66-2.46,1.68-.19,3.06.95,3.35,2.43.34,1.74-.76,3.33-2.5,3.65-.18.03-.36.04-.54.04-1.58,0-3.16,0-4.75,0Z"/>
        <path class="cls-1" d="m3.38,6.13c-.91,0-1.83,0-2.74,0-.39,0-.66-.28-.65-.64.01-.32.27-.58.62-.6.05,0,.1,0,.16,0,1.7,0,3.4,0,5.1,0,.91,0,1.61-.56,1.82-1.44.23-.98-.46-2.01-1.45-2.18-1.14-.19-2.1.6-2.16,1.78-.02.33-.19.55-.47.62-.41.1-.78-.2-.78-.64,0-1.42,1.07-2.71,2.47-2.97,1.68-.32,3.23.7,3.61,2.38.38,1.69-.82,3.43-2.55,3.66-.18.02-.36.03-.54.03-.81,0-1.63,0-2.44,0Z"/>
      </g>
    </g>
  </g>
</svg>